<svg xmlns="http://www.w3.org/2000/svg" viewBox="0 0 64 64" fill="none">
  <circle cx="46" cy="16" r="8" fill="#F5C518"/>
  <path d="M46 6v3.2M46 22.8V26M36 16h-3.2M56 16h3.2M39 9.2l2.2 2.2M50.8 20.6l2.2 2.2M39 22.8l2.2-2.2M50.8 11.4l2.2-2.2" stroke="#F5C518" stroke-width="1.6" stroke-linecap="round"/>
  <path d="M14 52c2-16 8-24 18-28 0 10-4 20-18 28Z" fill="#2F7D32"/>
  <path d="M22 52c3-14 10-22 20-26-1 10-6 19-20 26Z" fill="#3F9A44"/>
  <path d="M30 52c3-12 10-20 20-24-2 10-8 18-20 24Z" fill="#2F7D32"/>
  <path d="M12 50h36" stroke="#6B4F1D" stroke-width="3" stroke-linecap="round"/>
  <ellipse cx="18" cy="36" rx="3.2" ry="5.5" fill="#D4A017" transform="rotate(-28 18 36)"/>
  <ellipse cx="26" cy="32" rx="3.2" ry="5.5" fill="#E0B400" transform="rotate(-18 26 32)"/>
  <ellipse cx="34" cy="34" rx="3.2" ry="5.5" fill="#D4A017" transform="rotate(-8 34 34)"/>
</svg>
